<?xml version="1.0" encoding="UTF-8" standalone="no"?>
<!-- Generator: Adobe Illustrator 12.0.1, SVG Export Plug-In . SVG Version: 6.00 Build 51448)  -->
<svg
   xmlns:dc="http://purl.org/dc/elements/1.1/"
   xmlns:cc="http://creativecommons.org/ns#"
   xmlns:rdf="http://www.w3.org/1999/02/22-rdf-syntax-ns#"
   xmlns:svg="http://www.w3.org/2000/svg"
   xmlns="http://www.w3.org/2000/svg"
   xmlns:sodipodi="http://sodipodi.sourceforge.net/DTD/sodipodi-0.dtd"
   xmlns:inkscape="http://www.inkscape.org/namespaces/inkscape"
   version="1.1"
   id="Layer_1"
   width="276"
   height="59"
   viewBox="0 0 276 59"
   style="overflow:visible;enable-background:new 0 0 276 59;"
   xml:space="preserve"
   sodipodi:version="0.32"
   inkscape:version="0.46"
   sodipodi:docname="Windows NT logo.svg"
   inkscape:output_extension="org.inkscape.output.svg.inkscape"><metadata
   id="metadata46"><rdf:RDF><cc:Work
       rdf:about=""><dc:format>image/svg+xml</dc:format><dc:type
         rdf:resource="http://purl.org/dc/dcmitype/StillImage" /></cc:Work></rdf:RDF></metadata><defs
   id="defs44"><inkscape:perspective
     sodipodi:type="inkscape:persp3d"
     inkscape:vp_x="0 : 29.5 : 1"
     inkscape:vp_y="0 : 1000 : 0"
     inkscape:vp_z="276 : 29.5 : 1"
     inkscape:persp3d-origin="138 : 19.666667 : 1"
     id="perspective48" /></defs><sodipodi:namedview
   inkscape:window-height="736"
   inkscape:window-width="632"
   inkscape:pageshadow="2"
   inkscape:pageopacity="0.0"
   guidetolerance="10.0"
   gridtolerance="10.0"
   objecttolerance="10.0"
   borderopacity="1.0"
   bordercolor="#666666"
   pagecolor="#ffffff"
   id="base"
   showgrid="false"
   inkscape:zoom="0.98550724"
   inkscape:cx="196.31317"
   inkscape:cy="95.41234"
   inkscape:window-x="640"
   inkscape:window-y="0"
   inkscape:current-layer="Layer_1"
   showguides="true"
   inkscape:guide-bbox="true" />
<path
   d="M18.059,6.798L14.228,17.89c0,0-0.401,1.203-0.649,1.948c-0.211-0.657-0.564-1.752-0.564-1.752L9.244,6.798H5.758v16.15  h2.416c0,0,0-10.389,0-12.395c0.651,1.919,4.205,12.395,4.205,12.395h2.165c0,0,3.595-10.332,4.246-12.204  c0,1.961,0,12.204,0,12.204h2.416V6.798H18.059z"
   id="path3" />
<path
   d="M24.324,6.798v2.619h2.338V6.798H24.324z M24.324,11.142v11.807h2.338V11.142H24.324z"
   id="path5" />
<path
   d="M31.577,11.608L31.577,11.608c-0.869,0.481-1.525,1.211-1.95,2.17c-0.417,0.942-0.629,2.056-0.629,3.31  c0,1.945,0.497,3.465,1.477,4.518c0.984,1.057,2.301,1.592,3.912,1.592c1.289,0,2.394-0.389,3.284-1.156  c0.889-0.767,1.448-1.838,1.663-3.185l0.032-0.201l-2.306-0.321l-0.028,0.198c-0.129,0.915-0.433,1.596-0.903,2.027  c-0.475,0.434-1.052,0.645-1.766,0.645c-0.892,0-1.594-0.316-2.146-0.968c-0.553-0.652-0.833-1.729-0.833-3.202  c0-1.451,0.291-2.518,0.864-3.172c0.575-0.657,1.302-0.977,2.226-0.977c0.601,0,1.099,0.173,1.521,0.53  c0.419,0.355,0.718,0.897,0.886,1.613l0.042,0.181l2.263-0.358l-0.04-0.203c-0.23-1.19-0.764-2.124-1.586-2.777  c-0.821-0.649-1.886-0.979-3.164-0.979C33.385,10.892,32.437,11.133,31.577,11.608z"
   id="path7" />
<path
   d="M44.022,11.313L44.022,11.313c-0.292,0.201-0.598,0.593-0.915,1.082c0-0.503,0-1.253,0-1.253h-2.15v11.807h2.338v-6.165  c0-0.792,0.105-1.53,0.313-2.194c0.129-0.407,0.348-0.729,0.648-0.957c0.303-0.229,0.635-0.34,1.015-0.34  c0.434,0,0.875,0.127,1.314,0.379l0.204,0.117l0.816-2.164l-0.141-0.086c-0.702-0.429-1.405-0.647-2.09-0.647  C44.885,10.892,44.43,11.034,44.022,11.313z"
   id="path9" />
<path
   d="M49.823,12.206L49.823,12.206c-1.215,1.051-1.831,2.68-1.831,4.839c0,1.968,0.516,3.501,1.533,4.559  c1.02,1.058,2.371,1.595,4.016,1.595c1.025,0,1.984-0.243,2.852-0.722c0.872-0.482,1.546-1.168,2.003-2.04  c0.454-0.866,0.684-2.061,0.684-3.553c0-1.854-0.521-3.332-1.55-4.392c-1.031-1.062-2.373-1.6-3.989-1.6  C52.088,10.892,50.837,11.334,49.823,12.206z M50.376,17.039c0-1.401,0.305-2.457,0.906-3.138c0.604-0.683,1.342-1.015,2.258-1.015  c0.901,0,1.634,0.334,2.242,1.021c0.605,0.685,0.912,1.717,0.912,3.068c0,1.438-0.305,2.516-0.907,3.204  c-0.604,0.69-1.339,1.025-2.247,1.025c-0.916,0-1.654-0.333-2.258-1.02C50.681,19.499,50.376,18.44,50.376,17.039z"
   id="path11" />
<path
   d="M63.561,11.13L63.561,11.13c-0.541,0.161-0.975,0.361-1.291,0.594c-0.422,0.301-0.762,0.688-1.008,1.146  c-0.247,0.46-0.373,0.966-0.373,1.505c0,0.593,0.153,1.143,0.455,1.634c0.302,0.493,0.751,0.883,1.333,1.16  c0.562,0.268,1.538,0.576,2.983,0.942c1.276,0.32,1.748,0.518,1.919,0.627c0.324,0.211,0.482,0.493,0.482,0.859  c0,0.426-0.188,0.791-0.575,1.114c-0.392,0.327-1.016,0.493-1.855,0.493c-0.832,0-1.483-0.189-1.937-0.562  c-0.45-0.371-0.729-0.917-0.829-1.625l-0.028-0.201l-2.309,0.36l0.036,0.201c0.223,1.251,0.748,2.212,1.562,2.856  c0.811,0.641,1.994,0.965,3.517,0.965c0.918,0,1.756-0.163,2.489-0.484c0.742-0.324,1.319-0.793,1.716-1.393  c0.396-0.6,0.598-1.249,0.598-1.929c0-0.697-0.168-1.292-0.5-1.767c-0.33-0.473-0.788-0.837-1.362-1.083  c-0.548-0.235-1.519-0.54-2.887-0.906l-1.688-0.486c-0.294-0.118-0.515-0.27-0.65-0.447c-0.132-0.167-0.195-0.347-0.195-0.553  c0-0.33,0.16-0.614,0.49-0.868c0.342-0.263,0.939-0.396,1.775-0.396c0.7,0,1.244,0.152,1.617,0.452  c0.374,0.3,0.593,0.709,0.673,1.252l0.029,0.197l2.291-0.322l-0.034-0.202c-0.126-0.766-0.363-1.39-0.702-1.853  c-0.344-0.471-0.878-0.847-1.588-1.118c-0.696-0.265-1.513-0.4-2.428-0.4C64.678,10.892,64.097,10.972,63.561,11.13z"
   id="path13" />
<path
   d="M73.85,12.206L73.85,12.206c-1.215,1.051-1.831,2.68-1.831,4.839c0,1.968,0.516,3.501,1.533,4.559  c1.02,1.058,2.371,1.595,4.016,1.595c1.025,0,1.984-0.243,2.852-0.722c0.872-0.482,1.546-1.168,2.003-2.04  c0.454-0.866,0.684-2.061,0.684-3.553c0-1.854-0.521-3.332-1.55-4.392c-1.031-1.062-2.373-1.6-3.989-1.6  C76.115,10.892,74.864,11.334,73.85,12.206z M74.404,17.039c0-1.401,0.305-2.457,0.906-3.138c0.604-0.683,1.342-1.015,2.258-1.015  c0.901,0,1.634,0.334,2.242,1.021c0.605,0.685,0.912,1.717,0.912,3.068c0,1.438-0.305,2.516-0.907,3.204  c-0.604,0.69-1.339,1.025-2.247,1.025c-0.916,0-1.654-0.333-2.258-1.02C74.708,19.499,74.404,18.44,74.404,17.039z"
   id="path15" />
<path
   d="M92.237,13.042c0,0.376,0,6.368,0,6.368c0,1.2,0.083,1.974,0.252,2.365c0.174,0.4,0.477,0.726,0.899,0.97  c0.416,0.239,0.998,0.36,1.73,0.36l1.708-0.202l-0.052-0.204l-0.311-1.89l-1.006,0.083l-0.548-0.11c0,0-0.25-0.283-0.25-0.283  c-0.032-0.075-0.085-0.301-0.085-0.986c0,0,0-6.094,0-6.471c0.321,0,1.922,0,1.922,0v-1.9c0,0-1.601,0-1.922,0  c0-0.361,0-4.138,0-4.138l-2.338,1.4c0,0,0,2.393,0,2.738H88.15c0-0.263,0-0.855,0-0.855c0-0.632,0.104-1.06,0.309-1.272  c0.203-0.21,0.574-0.316,1.103-0.316L90.85,8.82l0.048-0.18l0.326-1.891l-2.038-0.216c-0.881,0-1.581,0.169-2.082,0.501  c-0.502,0.334-0.859,0.777-1.059,1.315c-0.146,0.4-0.217,0.981-0.217,1.779c0,0,0,0.735,0,1.014c-0.312,0-1.703,0-1.703,0v1.9  c0,0,1.392,0,1.703,0c0,0.384,0,9.906,0,9.906h2.338c0,0,0-9.522,0-9.906H92.237z"
   id="path17" />
<path
   d="M17.969,22.948h9.454l3.417,17.962l4.982-17.962h9.375l5.01,17.981l3.419-17.981h9.405L55.93,55.167h-9.763l-5.651-20.285  L34.89,55.167h-9.757L17.969,22.948z"
   id="path19" />
<path
   d="M65.051,22.948h8.938v6.094h-8.938V22.948z M65.051,31.823h8.938v23.344h-8.938V31.823z"
   id="path21" />
<path
   d="M77.217,31.823h8.323v3.794c1.246-1.552,2.507-2.66,3.783-3.326c1.275-0.666,2.83-0.999,4.663-0.999  c2.478,0,4.417,0.737,5.818,2.21s2.101,3.748,2.101,6.826v14.839h-9V42.318c0-1.467-0.271-2.504-0.813-3.113  c-0.542-0.608-1.305-0.913-2.287-0.913c-1.085,0-1.964,0.411-2.639,1.232s-1.011,2.296-1.011,4.422v11.221h-8.938V31.823z"
   id="path23" />
<path
   d="M129.32,22.948v32.219h-8.372v-3.456c-1.17,1.469-2.238,2.461-3.203,2.975c-1.287,0.675-2.72,1.013-4.299,1.013  c-3.173,0-5.597-1.209-7.271-3.628c-1.674-2.418-2.511-5.357-2.511-8.816c0-3.87,0.925-6.831,2.774-8.883  c1.85-2.053,4.2-3.079,7.051-3.079c1.389,0,2.65,0.235,3.784,0.704c1.133,0.469,2.138,1.174,3.016,2.111V22.948H129.32z   M120.354,43.426c0-1.83-0.387-3.195-1.161-4.096s-1.752-1.351-2.935-1.351c-1.037,0-1.906,0.433-2.606,1.296  c-0.701,0.863-1.051,2.312-1.051,4.348c0,1.904,0.361,3.299,1.084,4.184c0.723,0.887,1.617,1.329,2.683,1.329  c1.139,0,2.088-0.446,2.847-1.339C119.975,46.903,120.354,45.446,120.354,43.426z"
   id="path25" />
<path
   d="M131.203,43.561c0-3.561,1.201-6.496,3.604-8.805s5.648-3.464,9.736-3.464c4.674,0,8.205,1.356,10.594,4.067  c1.919,2.185,2.879,4.875,2.879,8.07c0,3.591-1.19,6.533-3.571,8.828c-2.381,2.293-5.674,3.44-9.879,3.44  c-3.751,0-6.784-0.952-9.099-2.858C132.624,50.48,131.203,47.387,131.203,43.561z M140.172,43.547c0,2.084,0.42,3.625,1.262,4.623  c0.841,0.998,1.898,1.497,3.171,1.497c1.287,0,2.345-0.491,3.171-1.476c0.826-0.982,1.24-2.561,1.24-4.732  c0-2.025-0.417-3.533-1.251-4.524s-1.865-1.486-3.095-1.486c-1.302,0-2.377,0.503-3.226,1.509  C140.596,39.962,140.172,41.492,140.172,43.547z"
   id="path27" />
<path
   d="M156.398,31.823h8.647l3.758,14.698l4.751-14.698h8.046l4.936,14.681l3.77-14.681h8.593l-8.59,23.344h-7.952l-4.724-14.046  l-4.572,14.046h-8.001L156.398,31.823z"
   id="path29" />
<path
   d="M197.459,48.698l8.875-0.844c0.366,1.052,0.88,1.805,1.541,2.258c0.66,0.453,1.541,0.68,2.642,0.68  c1.204,0,2.137-0.256,2.797-0.769c0.514-0.381,0.771-0.856,0.771-1.428c0-0.645-0.339-1.142-1.015-1.493  c-0.484-0.249-1.768-0.557-3.846-0.923c-3.105-0.541-5.262-1.043-6.471-1.504c-1.207-0.461-2.226-1.24-3.053-2.339  c-0.828-1.098-1.241-2.35-1.241-3.755c0-1.537,0.446-2.861,1.341-3.975c0.893-1.111,2.124-1.943,3.691-2.492  c1.568-0.549,3.67-0.823,6.308-0.823c2.783,0,4.838,0.212,6.164,0.636c1.326,0.423,2.433,1.08,3.319,1.971  c0.886,0.891,1.622,2.094,2.208,3.612l-8.469,0.844c-0.221-0.745-0.587-1.292-1.101-1.643c-0.705-0.468-1.557-0.701-2.555-0.701  c-1.014,0-1.752,0.18-2.214,0.538c-0.462,0.359-0.693,0.795-0.693,1.307c0,0.571,0.292,1.004,0.877,1.296  c0.584,0.293,1.857,0.557,3.819,0.791c2.973,0.337,5.185,0.806,6.635,1.405c1.449,0.602,2.559,1.459,3.328,2.572  c0.769,1.113,1.153,2.336,1.153,3.67c0,1.348-0.407,2.658-1.22,3.934c-0.813,1.273-2.096,2.289-3.846,3.043  c-1.752,0.754-4.136,1.132-7.154,1.132c-4.264,0-7.3-0.606-9.109-1.821C199.133,52.663,197.972,50.937,197.459,48.698z"
   id="path31" />
<path
   d="M99.554,9.696c0.371,0,0.733,0.095,1.087,0.286c0.354,0.19,0.629,0.463,0.827,0.818c0.197,0.355,0.296,0.725,0.296,1.11  c0,0.381-0.097,0.748-0.292,1.1c-0.194,0.352-0.467,0.625-0.817,0.82c-0.351,0.195-0.718,0.292-1.101,0.292s-0.75-0.097-1.101-0.292  c-0.351-0.194-0.624-0.468-0.819-0.82c-0.195-0.352-0.293-0.718-0.293-1.1c0-0.385,0.099-0.755,0.297-1.11  c0.198-0.354,0.474-0.627,0.828-0.818C98.82,9.791,99.183,9.696,99.554,9.696z M99.554,10.063c-0.311,0-0.613,0.08-0.906,0.239  c-0.294,0.16-0.524,0.387-0.69,0.684c-0.166,0.296-0.249,0.604-0.249,0.925c0,0.318,0.082,0.624,0.245,0.916  c0.163,0.292,0.391,0.52,0.684,0.684c0.293,0.163,0.599,0.245,0.917,0.245s0.624-0.082,0.917-0.245  c0.292-0.164,0.52-0.391,0.682-0.684c0.162-0.292,0.243-0.598,0.243-0.916c0-0.32-0.083-0.629-0.248-0.925  c-0.165-0.296-0.395-0.524-0.689-0.684C100.164,10.143,99.862,10.063,99.554,10.063z M98.583,13.133V10.75h0.82  c0.28,0,0.483,0.022,0.608,0.066c0.125,0.044,0.226,0.121,0.3,0.23c0.075,0.109,0.112,0.226,0.112,0.349  c0,0.174-0.062,0.325-0.188,0.455c-0.125,0.129-0.291,0.201-0.498,0.217c0.084,0.035,0.151,0.078,0.203,0.126  c0.096,0.094,0.213,0.251,0.352,0.473l0.291,0.467h-0.469l-0.211-0.376c-0.167-0.295-0.3-0.481-0.402-0.555  c-0.071-0.055-0.173-0.082-0.309-0.081h-0.226v1.012H98.583z M98.966,11.793h0.469c0.225,0,0.377-0.033,0.459-0.1  s0.123-0.155,0.123-0.264c0-0.07-0.02-0.133-0.059-0.189c-0.039-0.056-0.094-0.097-0.164-0.125s-0.2-0.041-0.388-0.041h-0.44V11.793  z"
   id="path33" />
<path
   d="M 272.30336,50.741 C 272.67436,50.741 273.03536,50.836 273.38936,51.027 C 273.74336,51.217 274.01936,51.49 274.21636,51.845 C 274.41336,52.2 274.51236,52.57 274.51236,52.956 C 274.51236,53.337 274.41436,53.704 274.22136,54.056 C 274.02636,54.408 273.75436,54.681 273.40336,54.875 C 273.05236,55.069 272.68636,55.167 272.30336,55.167 C 271.92036,55.167 271.55336,55.069 271.20136,54.875 C 270.85136,54.681 270.57836,54.407 270.38336,54.056 C 270.18836,53.705 270.09036,53.337 270.09036,52.956 C 270.09036,52.57 270.19036,52.2 270.38736,51.845 C 270.58636,51.491 270.86236,51.218 271.21536,51.027 C 271.56836,50.837 271.93236,50.741 272.30336,50.741 z M 272.30336,51.108 C 271.99236,51.108 271.69036,51.188 271.39736,51.347 C 271.10236,51.507 270.87336,51.734 270.70736,52.031 C 270.54136,52.327 270.45836,52.635 270.45836,52.956 C 270.45836,53.274 270.54036,53.579 270.70236,53.872 C 270.86636,54.164 271.09436,54.392 271.38636,54.556 C 271.67936,54.718 271.98636,54.8 272.30436,54.8 C 272.62236,54.8 272.92736,54.718 273.22036,54.556 C 273.51336,54.392 273.74136,54.164 273.90336,53.872 C 274.06536,53.579 274.14636,53.274 274.14636,52.956 C 274.14636,52.635 274.06436,52.327 273.89836,52.031 C 273.73436,51.735 273.50336,51.507 273.20936,51.347 C 272.91236,51.188 272.61136,51.108 272.30336,51.108 z M 271.33236,54.179 L 271.33236,51.796 L 272.15236,51.796 C 272.43136,51.796 272.63436,51.818 272.75936,51.862 C 272.88536,51.906 272.98636,51.983 273.06036,52.092 C 273.13436,52.201 273.17136,52.318 273.17136,52.441 C 273.17136,52.615 273.10936,52.767 272.98336,52.896 C 272.85736,53.025 272.69236,53.097 272.48536,53.113 C 272.56936,53.148 272.63736,53.191 272.68836,53.24 C 272.78436,53.334 272.90136,53.491 273.04036,53.713 L 273.33136,54.18 L 272.86236,54.18 L 272.65036,53.804 C 272.48336,53.508 272.35036,53.323 272.24936,53.248 C 272.17836,53.193 272.07536,53.166 271.94036,53.168 L 271.71336,53.168 L 271.71336,54.18 L 271.33236,54.18 L 271.33236,54.179 z M 271.71536,52.839 L 272.18436,52.839 C 272.40936,52.839 272.56236,52.806 272.64336,52.739 C 272.72536,52.673 272.76636,52.584 272.76636,52.475 C 272.76636,52.405 272.74636,52.342 272.70736,52.286 C 272.66836,52.23 272.61336,52.189 272.54336,52.161 C 272.47336,52.133 272.34436,52.12 272.15436,52.12 L 271.71536,52.12 L 271.71536,52.839 z"
   id="path35" />


<path
   style="fill:none"
   d="M 0,0 L 276,0 L 276,59 L 0,59 L 0,0 z"
   id="rect41" />
<path
   transform="matrix(3.7980029,0,0,4.5009899,486.7297,-18.732962)"
   style="font-size:40px;font-style:normal;font-weight:normal;fill:#000000;fill-opacity:1;stroke:none;stroke-width:1px;stroke-linecap:butt;stroke-linejoin:miter;stroke-opacity:1;font-family:Bitstream Vera Sans"
   d="M -69.22168,9.2603989 L -67.15625,9.2603989 L -64.460938,13.22036 L -64.460938,9.2603989 L -62.375977,9.2603989 L -62.375977,16.418602 L -64.460938,16.418602 L -67.141602,12.487938 L -67.141602,16.418602 L -69.22168,16.418602 L -69.22168,9.2603989 z"
   id="flowRoot2398" /><path
   transform="matrix(3.6063498,0,0,4.5009899,502.86345,-18.732962)"
   style="font-size:40px;font-style:normal;font-weight:normal;fill:#000000;fill-opacity:1;stroke:none;stroke-width:1px;stroke-linecap:butt;stroke-linejoin:miter;stroke-opacity:1;overflow:visible;font-family:Bitstream Vera Sans"
   d="M -69.739258,9.2603989 L -63.015625,9.2603989 L -63.015625,11.027977 L -65.271484,11.027977 L -65.271484,16.418602 L -67.483398,16.418602 L -67.483398,11.027977 L -69.739258,11.027977 L -69.739258,9.2603989 z"
   id="flowRoot2406" /></svg>